<mxfile host="app.diagrams.net" agent="Mozilla/5.0 (Windows NT 10.0; Win64; x64) AppleWebKit/537.36 (KHTML, like Gecko) Chrome/127.0.0.0 Safari/537.36" version="24.7.6">
  <diagram name="Page-1" id="nFWbH-tPjMWIyxo85IlC">
    <mxGraphModel dx="2388" dy="1292" grid="0" gridSize="10" guides="1" tooltips="1" connect="1" arrows="1" fold="1" page="0" pageScale="1" pageWidth="850" pageHeight="1100" math="0" shadow="0">
      <root>
        <mxCell id="0" />
        <mxCell id="1" parent="0" />
        <mxCell id="QcYhOKtaJUYR_8YwgSNl-1" value="" style="rounded=0;whiteSpace=wrap;html=1;" parent="1" vertex="1">
          <mxGeometry x="-667" y="-113" width="2189" height="2034" as="geometry" />
        </mxCell>
        <mxCell id="QcYhOKtaJUYR_8YwgSNl-2" value="z" style="rounded=0;whiteSpace=wrap;html=1;rotation=90;" parent="1" vertex="1">
          <mxGeometry x="-488" y="-17" width="1844.84" height="1771" as="geometry" />
        </mxCell>
        <mxCell id="QcYhOKtaJUYR_8YwgSNl-3" value="Register/ Login" style="ellipse;whiteSpace=wrap;html=1;" parent="1" vertex="1">
          <mxGeometry x="845" y="768" width="130" height="30" as="geometry" />
        </mxCell>
        <mxCell id="QcYhOKtaJUYR_8YwgSNl-4" value="&lt;b&gt;&lt;font style=&quot;font-size: 18px;&quot;&gt;SEYONI&amp;nbsp;&lt;/font&gt;&lt;/b&gt;" style="text;html=1;align=center;verticalAlign=middle;whiteSpace=wrap;rounded=0;" parent="1" vertex="1">
          <mxGeometry x="-431" y="-34" width="150" height="35" as="geometry" />
        </mxCell>
        <mxCell id="QcYhOKtaJUYR_8YwgSNl-5" value="Manage Profile" style="ellipse;whiteSpace=wrap;html=1;" parent="1" vertex="1">
          <mxGeometry x="-294" y="738" width="130" height="30" as="geometry" />
        </mxCell>
        <mxCell id="QcYhOKtaJUYR_8YwgSNl-6" value="Request Service" style="ellipse;whiteSpace=wrap;html=1;" parent="1" vertex="1">
          <mxGeometry x="369.42" y="213" width="130" height="30" as="geometry" />
        </mxCell>
        <mxCell id="QcYhOKtaJUYR_8YwgSNl-7" value="View Provider&#39;s Location&amp;nbsp;" style="ellipse;whiteSpace=wrap;html=1;" parent="1" vertex="1">
          <mxGeometry x="640" y="-34" width="157" height="34" as="geometry" />
        </mxCell>
        <mxCell id="QcYhOKtaJUYR_8YwgSNl-8" value="Rate &amp;amp; Review Service Provider" style="ellipse;whiteSpace=wrap;html=1;" parent="1" vertex="1">
          <mxGeometry x="482" y="89" width="180" height="40" as="geometry" />
        </mxCell>
        <mxCell id="QcYhOKtaJUYR_8YwgSNl-9" value="Make Payment" style="ellipse;whiteSpace=wrap;html=1;" parent="1" vertex="1">
          <mxGeometry x="267" y="414" width="130" height="30" as="geometry" />
        </mxCell>
        <mxCell id="QcYhOKtaJUYR_8YwgSNl-10" value="Search for Services" style="ellipse;whiteSpace=wrap;html=1;" parent="1" vertex="1">
          <mxGeometry x="592" y="30" width="130" height="30" as="geometry" />
        </mxCell>
        <mxCell id="QcYhOKtaJUYR_8YwgSNl-12" value="View Profile" style="ellipse;whiteSpace=wrap;html=1;" parent="1" vertex="1">
          <mxGeometry x="114" y="738" width="150" height="30" as="geometry" />
        </mxCell>
        <mxCell id="QcYhOKtaJUYR_8YwgSNl-13" value="View Service Providers" style="ellipse;whiteSpace=wrap;html=1;" parent="1" vertex="1">
          <mxGeometry x="381" y="381" width="140" height="30" as="geometry" />
        </mxCell>
        <mxCell id="QcYhOKtaJUYR_8YwgSNl-14" value="View Service Requests" style="ellipse;whiteSpace=wrap;html=1;" parent="1" vertex="1">
          <mxGeometry x="121" y="1220" width="136" height="30" as="geometry" />
        </mxCell>
        <mxCell id="QcYhOKtaJUYR_8YwgSNl-15" value="Provide Service" style="ellipse;whiteSpace=wrap;html=1;" parent="1" vertex="1">
          <mxGeometry x="112.99999999999994" y="1287" width="130" height="30" as="geometry" />
        </mxCell>
        <mxCell id="QcYhOKtaJUYR_8YwgSNl-16" value="Update Service Status" style="ellipse;whiteSpace=wrap;html=1;" parent="1" vertex="1">
          <mxGeometry x="103" y="1347" width="134" height="30" as="geometry" />
        </mxCell>
        <mxCell id="QcYhOKtaJUYR_8YwgSNl-17" value="View Ratings &amp;amp; Reviews" style="ellipse;whiteSpace=wrap;html=1;" parent="1" vertex="1">
          <mxGeometry x="93" y="1414" width="140" height="36" as="geometry" />
        </mxCell>
        <mxCell id="QcYhOKtaJUYR_8YwgSNl-18" value="Manage System Setting" style="ellipse;whiteSpace=wrap;html=1;" parent="1" vertex="1">
          <mxGeometry x="1000" y="1627" width="155" height="30" as="geometry" />
        </mxCell>
        <mxCell id="QcYhOKtaJUYR_8YwgSNl-19" value="Verify Service Providers" style="ellipse;whiteSpace=wrap;html=1;" parent="1" vertex="1">
          <mxGeometry x="915" y="1466" width="150" height="30" as="geometry" />
        </mxCell>
        <mxCell id="QcYhOKtaJUYR_8YwgSNl-20" value="View Reports &amp;amp; Analytics" style="ellipse;whiteSpace=wrap;html=1;" parent="1" vertex="1">
          <mxGeometry x="928" y="1549" width="150" height="30" as="geometry" />
        </mxCell>
        <mxCell id="QcYhOKtaJUYR_8YwgSNl-21" value="&lt;div style=&quot;&quot;&gt;&lt;b style=&quot;color: rgb(204, 0, 0); background-color: initial;&quot;&gt;Service Seeker&lt;/b&gt;&lt;/div&gt;" style="shape=umlActor;verticalLabelPosition=bottom;verticalAlign=top;html=1;outlineConnect=0;fillColor=#ffe6cc;strokeColor=#ad7c01;align=center;" parent="1" vertex="1">
          <mxGeometry x="-579" y="301" width="30" height="60" as="geometry" />
        </mxCell>
        <mxCell id="QcYhOKtaJUYR_8YwgSNl-22" value="&lt;b&gt;&lt;font color=&quot;#cc0000&quot;&gt;Service Provider&lt;/font&gt;&lt;/b&gt;" style="shape=umlActor;verticalLabelPosition=bottom;verticalAlign=top;html=1;outlineConnect=0;fillColor=#ffe6cc;strokeColor=#ad7c01;" parent="1" vertex="1">
          <mxGeometry x="-579" y="1092" width="30" height="60" as="geometry" />
        </mxCell>
        <mxCell id="QcYhOKtaJUYR_8YwgSNl-23" value="&lt;font style=&quot;&quot; color=&quot;#cc0000&quot;&gt;&lt;b&gt;Administrator&lt;/b&gt;&lt;/font&gt;" style="shape=umlActor;verticalLabelPosition=bottom;verticalAlign=top;html=1;outlineConnect=0;fillColor=#ffe6cc;strokeColor=#ad7c01;" parent="1" vertex="1">
          <mxGeometry x="1418" y="1462" width="30" height="60" as="geometry" />
        </mxCell>
        <mxCell id="QcYhOKtaJUYR_8YwgSNl-24" value="" style="endArrow=none;html=1;rounded=0;entryX=1;entryY=0.5;entryDx=0;entryDy=0;exitX=0;exitY=0.3333333333333333;exitDx=0;exitDy=0;exitPerimeter=0;" parent="1" source="QcYhOKtaJUYR_8YwgSNl-23" target="QcYhOKtaJUYR_8YwgSNl-18" edge="1">
          <mxGeometry width="50" height="50" relative="1" as="geometry">
            <mxPoint x="-27.880000000000003" y="1156" as="sourcePoint" />
            <mxPoint x="300.03000000000003" y="837" as="targetPoint" />
            <Array as="points" />
          </mxGeometry>
        </mxCell>
        <mxCell id="QcYhOKtaJUYR_8YwgSNl-25" value="" style="endArrow=none;html=1;rounded=0;entryX=1;entryY=0.5;entryDx=0;entryDy=0;exitX=0;exitY=0.3333333333333333;exitDx=0;exitDy=0;exitPerimeter=0;" parent="1" source="QcYhOKtaJUYR_8YwgSNl-23" target="QcYhOKtaJUYR_8YwgSNl-19" edge="1">
          <mxGeometry width="50" height="50" relative="1" as="geometry">
            <mxPoint x="-25.880000000000003" y="1157" as="sourcePoint" />
            <mxPoint x="187.12" y="1208" as="targetPoint" />
            <Array as="points" />
          </mxGeometry>
        </mxCell>
        <mxCell id="QcYhOKtaJUYR_8YwgSNl-26" value="" style="endArrow=none;html=1;rounded=0;entryX=1;entryY=0.5;entryDx=0;entryDy=0;exitX=0;exitY=0.3333333333333333;exitDx=0;exitDy=0;exitPerimeter=0;" parent="1" source="QcYhOKtaJUYR_8YwgSNl-23" target="QcYhOKtaJUYR_8YwgSNl-20" edge="1">
          <mxGeometry width="50" height="50" relative="1" as="geometry">
            <mxPoint x="-30.880000000000003" y="1156" as="sourcePoint" />
            <mxPoint x="458.03" y="952" as="targetPoint" />
            <Array as="points" />
          </mxGeometry>
        </mxCell>
        <mxCell id="QcYhOKtaJUYR_8YwgSNl-45" value="Completing a service&amp;nbsp;" style="ellipse;whiteSpace=wrap;html=1;" parent="1" vertex="1">
          <mxGeometry x="76" y="1473" width="165" height="30" as="geometry" />
        </mxCell>
        <mxCell id="QcYhOKtaJUYR_8YwgSNl-47" value="&lt;b&gt;&lt;font color=&quot;#cc0000&quot;&gt;Payment API&lt;/font&gt;&lt;/b&gt;" style="shape=umlActor;verticalLabelPosition=bottom;verticalAlign=top;html=1;outlineConnect=0;fillColor=#ffe6cc;strokeColor=#ad7c01;" parent="1" vertex="1">
          <mxGeometry x="1418" y="1237" width="30" height="60" as="geometry" />
        </mxCell>
        <mxCell id="QcYhOKtaJUYR_8YwgSNl-48" value="Payment Handling" style="ellipse;whiteSpace=wrap;html=1;" parent="1" vertex="1">
          <mxGeometry x="1088" y="1237" width="134" height="30" as="geometry" />
        </mxCell>
        <mxCell id="QcYhOKtaJUYR_8YwgSNl-49" value="Enter Service Charge Amount" style="ellipse;whiteSpace=wrap;html=1;" parent="1" vertex="1">
          <mxGeometry x="117" y="1641" width="192" height="30" as="geometry" />
        </mxCell>
        <mxCell id="QcYhOKtaJUYR_8YwgSNl-52" style="edgeStyle=orthogonalEdgeStyle;rounded=0;orthogonalLoop=1;jettySize=auto;html=1;exitX=0.5;exitY=1;exitDx=0;exitDy=0;" parent="1" source="QcYhOKtaJUYR_8YwgSNl-8" target="QcYhOKtaJUYR_8YwgSNl-8" edge="1">
          <mxGeometry relative="1" as="geometry" />
        </mxCell>
        <mxCell id="QcYhOKtaJUYR_8YwgSNl-53" value="" style="endArrow=none;html=1;rounded=0;exitX=1;exitY=0.5;exitDx=0;exitDy=0;entryX=0;entryY=0.3333333333333333;entryDx=0;entryDy=0;entryPerimeter=0;" parent="1" source="QcYhOKtaJUYR_8YwgSNl-48" target="QcYhOKtaJUYR_8YwgSNl-47" edge="1">
          <mxGeometry width="50" height="50" relative="1" as="geometry">
            <mxPoint x="558.03" y="942" as="sourcePoint" />
            <mxPoint x="914.12" y="1245" as="targetPoint" />
          </mxGeometry>
        </mxCell>
        <mxCell id="QcYhOKtaJUYR_8YwgSNl-54" value="&amp;lt;&amp;lt;Include&amp;gt;&amp;gt;" style="endArrow=open;endSize=12;dashed=1;html=1;rounded=0;exitX=0.5;exitY=1;exitDx=0;exitDy=0;" parent="1" source="QcYhOKtaJUYR_8YwgSNl-49" target="QcYhOKtaJUYR_8YwgSNl-48" edge="1">
          <mxGeometry x="0.1598" y="-2" width="160" relative="1" as="geometry">
            <mxPoint x="612.12" y="926" as="sourcePoint" />
            <mxPoint x="548.03" y="347" as="targetPoint" />
            <mxPoint as="offset" />
            <Array as="points">
              <mxPoint x="213" y="1701" />
              <mxPoint x="362" y="1701" />
              <mxPoint x="471" y="1701" />
            </Array>
          </mxGeometry>
        </mxCell>
        <mxCell id="QcYhOKtaJUYR_8YwgSNl-55" value="&amp;lt;&amp;lt;Include&amp;gt;&amp;gt;" style="endArrow=open;endSize=12;dashed=1;html=1;rounded=0;entryX=0.359;entryY=0.095;entryDx=0;entryDy=0;entryPerimeter=0;exitX=1;exitY=0.5;exitDx=0;exitDy=0;" parent="1" source="QcYhOKtaJUYR_8YwgSNl-9" target="QcYhOKtaJUYR_8YwgSNl-48" edge="1">
          <mxGeometry x="0.5636" y="13" width="160" relative="1" as="geometry">
            <mxPoint x="484.0000000000002" y="425" as="sourcePoint" />
            <mxPoint x="1193.212137628709" y="1190.3669809664593" as="targetPoint" />
            <mxPoint x="-1" as="offset" />
            <Array as="points" />
          </mxGeometry>
        </mxCell>
        <mxCell id="QcYhOKtaJUYR_8YwgSNl-57" value="User Authentication&amp;nbsp;" style="ellipse;whiteSpace=wrap;html=1;" parent="1" vertex="1">
          <mxGeometry x="915" y="448" width="130" height="30" as="geometry" />
        </mxCell>
        <mxCell id="QcYhOKtaJUYR_8YwgSNl-58" value="&amp;lt;&amp;lt;Include&amp;gt;&amp;gt;" style="endArrow=open;endSize=12;dashed=1;html=1;rounded=0;exitX=0.768;exitY=-0.004;exitDx=0;exitDy=0;entryX=0.276;entryY=0.948;entryDx=0;entryDy=0;exitPerimeter=0;entryPerimeter=0;" parent="1" source="QcYhOKtaJUYR_8YwgSNl-3" target="QcYhOKtaJUYR_8YwgSNl-57" edge="1">
          <mxGeometry x="-0.274" y="5" width="160" relative="1" as="geometry">
            <mxPoint x="633.12" y="805" as="sourcePoint" />
            <mxPoint x="436.12" y="350" as="targetPoint" />
            <mxPoint as="offset" />
          </mxGeometry>
        </mxCell>
        <mxCell id="QcYhOKtaJUYR_8YwgSNl-59" value="&amp;lt;&amp;lt;include&amp;gt;&amp;gt;" style="endArrow=open;endSize=12;dashed=1;html=1;rounded=0;entryX=0.5;entryY=1;entryDx=0;entryDy=0;exitX=0.4;exitY=0.021;exitDx=0;exitDy=0;exitPerimeter=0;" parent="1" source="QcYhOKtaJUYR_8YwgSNl-11" target="QcYhOKtaJUYR_8YwgSNl-65" edge="1">
          <mxGeometry x="0.0344" width="160" relative="1" as="geometry">
            <mxPoint x="319" y="62" as="sourcePoint" />
            <mxPoint x="564.12" y="204" as="targetPoint" />
            <mxPoint as="offset" />
            <Array as="points" />
          </mxGeometry>
        </mxCell>
        <mxCell id="QcYhOKtaJUYR_8YwgSNl-60" value="Select Service provider" style="ellipse;whiteSpace=wrap;html=1;" parent="1" vertex="1">
          <mxGeometry x="510" y="149" width="130" height="30" as="geometry" />
        </mxCell>
        <mxCell id="QcYhOKtaJUYR_8YwgSNl-62" value="Accept/Reject Service Requests" style="ellipse;whiteSpace=wrap;html=1;" parent="1" vertex="1">
          <mxGeometry x="83" y="1528" width="190" height="30" as="geometry" />
        </mxCell>
        <mxCell id="QcYhOKtaJUYR_8YwgSNl-64" value="In-app Calling &amp;amp; Messaging" style="ellipse;whiteSpace=wrap;html=1;" parent="1" vertex="1">
          <mxGeometry x="-125" y="733" width="185" height="40" as="geometry" />
        </mxCell>
        <mxCell id="QcYhOKtaJUYR_8YwgSNl-65" value="Select Emergency Type&amp;nbsp;" style="ellipse;whiteSpace=wrap;html=1;" parent="1" vertex="1">
          <mxGeometry x="227" y="532" width="170" height="40" as="geometry" />
        </mxCell>
        <mxCell id="QcYhOKtaJUYR_8YwgSNl-66" value="Update the Service Provider&#39;s Location&amp;nbsp;" style="ellipse;whiteSpace=wrap;html=1;" parent="1" vertex="1">
          <mxGeometry x="1072" y="143.5" width="220" height="41" as="geometry" />
        </mxCell>
        <mxCell id="QcYhOKtaJUYR_8YwgSNl-67" value="Share Location&amp;nbsp;" style="ellipse;whiteSpace=wrap;html=1;" parent="1" vertex="1">
          <mxGeometry x="113" y="1593" width="157" height="34" as="geometry" />
        </mxCell>
        <mxCell id="QcYhOKtaJUYR_8YwgSNl-68" value="Track Service Provider&#39;s Location&amp;nbsp;" style="ellipse;whiteSpace=wrap;html=1;" parent="1" vertex="1">
          <mxGeometry x="1056" y="810" width="194" height="38" as="geometry" />
        </mxCell>
        <mxCell id="QcYhOKtaJUYR_8YwgSNl-70" value="&lt;b&gt;&lt;font color=&quot;#cc0000&quot;&gt;Tracking API&lt;/font&gt;&lt;/b&gt;" style="shape=umlActor;verticalLabelPosition=bottom;verticalAlign=top;html=1;outlineConnect=0;fillColor=#ffe6cc;strokeColor=#ad7c01;" parent="1" vertex="1">
          <mxGeometry x="1418" y="463" width="30" height="60" as="geometry" />
        </mxCell>
        <mxCell id="QcYhOKtaJUYR_8YwgSNl-72" value="" style="endArrow=none;html=1;rounded=0;entryX=1;entryY=0.5;entryDx=0;entryDy=0;exitX=0;exitY=0.3333333333333333;exitDx=0;exitDy=0;exitPerimeter=0;" parent="1" source="QcYhOKtaJUYR_8YwgSNl-70" target="QcYhOKtaJUYR_8YwgSNl-66" edge="1">
          <mxGeometry width="50" height="50" relative="1" as="geometry">
            <mxPoint x="899.12" y="164" as="sourcePoint" />
            <mxPoint x="642.12" y="171" as="targetPoint" />
            <Array as="points" />
          </mxGeometry>
        </mxCell>
        <mxCell id="QcYhOKtaJUYR_8YwgSNl-73" value="" style="endArrow=none;html=1;rounded=0;entryX=1;entryY=0.5;entryDx=0;entryDy=0;exitX=0;exitY=0.3333333333333333;exitDx=0;exitDy=0;exitPerimeter=0;" parent="1" source="QcYhOKtaJUYR_8YwgSNl-70" target="QcYhOKtaJUYR_8YwgSNl-68" edge="1">
          <mxGeometry width="50" height="50" relative="1" as="geometry">
            <mxPoint x="900.12" y="164" as="sourcePoint" />
            <mxPoint x="709.12" y="272" as="targetPoint" />
            <Array as="points" />
          </mxGeometry>
        </mxCell>
        <mxCell id="QcYhOKtaJUYR_8YwgSNl-74" value="&amp;lt;&amp;lt;Extend&amp;gt;&amp;gt;" style="endArrow=open;endSize=12;dashed=1;html=1;rounded=0;exitX=1;exitY=1;exitDx=0;exitDy=0;entryX=0.277;entryY=0.108;entryDx=0;entryDy=0;entryPerimeter=0;" parent="1" source="QcYhOKtaJUYR_8YwgSNl-7" target="QcYhOKtaJUYR_8YwgSNl-66" edge="1">
          <mxGeometry x="-0.1674" y="-16" width="160" relative="1" as="geometry">
            <mxPoint x="419.12" y="261" as="sourcePoint" />
            <mxPoint x="395.12" y="208" as="targetPoint" />
            <mxPoint as="offset" />
            <Array as="points" />
          </mxGeometry>
        </mxCell>
        <mxCell id="QcYhOKtaJUYR_8YwgSNl-75" value="&amp;lt;&amp;lt;Extend&amp;gt;&amp;gt;" style="endArrow=open;endSize=12;dashed=1;html=1;rounded=0;exitX=1;exitY=0.5;exitDx=0;exitDy=0;entryX=0.5;entryY=1;entryDx=0;entryDy=0;" parent="1" source="QcYhOKtaJUYR_8YwgSNl-67" target="QcYhOKtaJUYR_8YwgSNl-68" edge="1">
          <mxGeometry x="-0.0815" y="-4" width="160" relative="1" as="geometry">
            <mxPoint x="643.12" y="329" as="sourcePoint" />
            <mxPoint x="619.12" y="276" as="targetPoint" />
            <mxPoint as="offset" />
            <Array as="points">
              <mxPoint x="484" y="1608" />
              <mxPoint x="1153" y="1150" />
            </Array>
          </mxGeometry>
        </mxCell>
        <mxCell id="QcYhOKtaJUYR_8YwgSNl-11" value="Access Emergency Assistance" style="ellipse;whiteSpace=wrap;html=1;" parent="1" vertex="1">
          <mxGeometry x="317" y="741" width="170" height="40" as="geometry" />
        </mxCell>
        <mxCell id="tsS1E2rS6Lll62WBFHYo-62" value="" style="endArrow=none;html=1;rounded=0;exitX=1;exitY=0.3333333333333333;exitDx=0;exitDy=0;exitPerimeter=0;entryX=0;entryY=0.5;entryDx=0;entryDy=0;" parent="1" source="QcYhOKtaJUYR_8YwgSNl-21" target="QcYhOKtaJUYR_8YwgSNl-5" edge="1">
          <mxGeometry width="50" height="50" relative="1" as="geometry">
            <mxPoint x="412" y="554" as="sourcePoint" />
            <mxPoint x="462" y="504" as="targetPoint" />
            <Array as="points" />
          </mxGeometry>
        </mxCell>
        <mxCell id="tsS1E2rS6Lll62WBFHYo-63" value="" style="endArrow=none;html=1;rounded=0;exitX=1;exitY=0.3333333333333333;exitDx=0;exitDy=0;exitPerimeter=0;entryX=0;entryY=0.5;entryDx=0;entryDy=0;" parent="1" source="QcYhOKtaJUYR_8YwgSNl-21" target="QcYhOKtaJUYR_8YwgSNl-64" edge="1">
          <mxGeometry width="50" height="50" relative="1" as="geometry">
            <mxPoint x="-240" y="353" as="sourcePoint" />
            <mxPoint x="130" y="708" as="targetPoint" />
            <Array as="points" />
          </mxGeometry>
        </mxCell>
        <mxCell id="tsS1E2rS6Lll62WBFHYo-64" value="" style="endArrow=none;html=1;rounded=0;exitX=1;exitY=0.3333333333333333;exitDx=0;exitDy=0;exitPerimeter=0;entryX=0;entryY=0.5;entryDx=0;entryDy=0;" parent="1" source="QcYhOKtaJUYR_8YwgSNl-21" target="QcYhOKtaJUYR_8YwgSNl-12" edge="1">
          <mxGeometry width="50" height="50" relative="1" as="geometry">
            <mxPoint x="-200" y="303" as="sourcePoint" />
            <mxPoint x="170" y="658" as="targetPoint" />
            <Array as="points" />
          </mxGeometry>
        </mxCell>
        <mxCell id="tsS1E2rS6Lll62WBFHYo-65" value="" style="endArrow=none;html=1;rounded=0;exitX=1;exitY=0.3333333333333333;exitDx=0;exitDy=0;exitPerimeter=0;entryX=0;entryY=0.5;entryDx=0;entryDy=0;" parent="1" source="QcYhOKtaJUYR_8YwgSNl-21" target="QcYhOKtaJUYR_8YwgSNl-11" edge="1">
          <mxGeometry width="50" height="50" relative="1" as="geometry">
            <mxPoint x="-168" y="273" as="sourcePoint" />
            <mxPoint x="202" y="628" as="targetPoint" />
            <Array as="points" />
          </mxGeometry>
        </mxCell>
        <mxCell id="tsS1E2rS6Lll62WBFHYo-66" value="" style="endArrow=none;html=1;rounded=0;exitX=1;exitY=0.3333333333333333;exitDx=0;exitDy=0;exitPerimeter=0;entryX=0;entryY=0.5;entryDx=0;entryDy=0;" parent="1" source="QcYhOKtaJUYR_8YwgSNl-21" target="QcYhOKtaJUYR_8YwgSNl-13" edge="1">
          <mxGeometry width="50" height="50" relative="1" as="geometry">
            <mxPoint x="-384" y="244" as="sourcePoint" />
            <mxPoint x="539" y="594" as="targetPoint" />
            <Array as="points" />
          </mxGeometry>
        </mxCell>
        <mxCell id="tsS1E2rS6Lll62WBFHYo-67" value="" style="endArrow=none;html=1;rounded=0;exitX=1;exitY=0.3333333333333333;exitDx=0;exitDy=0;exitPerimeter=0;entryX=0;entryY=0.5;entryDx=0;entryDy=0;" parent="1" source="QcYhOKtaJUYR_8YwgSNl-21" target="QcYhOKtaJUYR_8YwgSNl-6" edge="1">
          <mxGeometry width="50" height="50" relative="1" as="geometry">
            <mxPoint x="-258" y="190" as="sourcePoint" />
            <mxPoint x="227" y="164" as="targetPoint" />
            <Array as="points" />
          </mxGeometry>
        </mxCell>
        <mxCell id="tsS1E2rS6Lll62WBFHYo-68" value="" style="endArrow=none;html=1;rounded=0;exitX=1;exitY=0.3333333333333333;exitDx=0;exitDy=0;exitPerimeter=0;entryX=0;entryY=0.5;entryDx=0;entryDy=0;" parent="1" source="QcYhOKtaJUYR_8YwgSNl-21" target="QcYhOKtaJUYR_8YwgSNl-60" edge="1">
          <mxGeometry width="50" height="50" relative="1" as="geometry">
            <mxPoint x="-362" y="265" as="sourcePoint" />
            <mxPoint x="265" y="161" as="targetPoint" />
            <Array as="points" />
          </mxGeometry>
        </mxCell>
        <mxCell id="tsS1E2rS6Lll62WBFHYo-69" value="" style="endArrow=none;html=1;rounded=0;exitX=1;exitY=0.3333333333333333;exitDx=0;exitDy=0;exitPerimeter=0;entryX=0;entryY=0.5;entryDx=0;entryDy=0;" parent="1" source="QcYhOKtaJUYR_8YwgSNl-21" target="QcYhOKtaJUYR_8YwgSNl-8" edge="1">
          <mxGeometry width="50" height="50" relative="1" as="geometry">
            <mxPoint x="-356" y="389" as="sourcePoint" />
            <mxPoint x="392" y="201" as="targetPoint" />
            <Array as="points" />
          </mxGeometry>
        </mxCell>
        <mxCell id="tsS1E2rS6Lll62WBFHYo-71" value="" style="endArrow=none;html=1;rounded=0;exitX=1;exitY=0.3333333333333333;exitDx=0;exitDy=0;exitPerimeter=0;entryX=0;entryY=0.5;entryDx=0;entryDy=0;" parent="1" source="QcYhOKtaJUYR_8YwgSNl-21" target="QcYhOKtaJUYR_8YwgSNl-10" edge="1">
          <mxGeometry width="50" height="50" relative="1" as="geometry">
            <mxPoint x="-356" y="389" as="sourcePoint" />
            <mxPoint x="527" y="113" as="targetPoint" />
            <Array as="points" />
          </mxGeometry>
        </mxCell>
        <mxCell id="tsS1E2rS6Lll62WBFHYo-74" value="" style="endArrow=none;html=1;rounded=0;exitX=1;exitY=0.3333333333333333;exitDx=0;exitDy=0;exitPerimeter=0;entryX=0;entryY=0.5;entryDx=0;entryDy=0;" parent="1" source="QcYhOKtaJUYR_8YwgSNl-22" target="QcYhOKtaJUYR_8YwgSNl-5" edge="1">
          <mxGeometry width="50" height="50" relative="1" as="geometry">
            <mxPoint x="-2" y="808" as="sourcePoint" />
            <mxPoint x="-115" y="765" as="targetPoint" />
            <Array as="points" />
          </mxGeometry>
        </mxCell>
        <mxCell id="tsS1E2rS6Lll62WBFHYo-75" value="" style="endArrow=none;html=1;rounded=0;exitX=1;exitY=0.3333333333333333;exitDx=0;exitDy=0;exitPerimeter=0;entryX=0;entryY=0.5;entryDx=0;entryDy=0;" parent="1" source="QcYhOKtaJUYR_8YwgSNl-22" target="QcYhOKtaJUYR_8YwgSNl-64" edge="1">
          <mxGeometry width="50" height="50" relative="1" as="geometry">
            <mxPoint x="-326" y="1117" as="sourcePoint" />
            <mxPoint x="14" y="774" as="targetPoint" />
            <Array as="points" />
          </mxGeometry>
        </mxCell>
        <mxCell id="tsS1E2rS6Lll62WBFHYo-76" value="" style="endArrow=none;html=1;rounded=0;exitX=1;exitY=0.3333333333333333;exitDx=0;exitDy=0;exitPerimeter=0;entryX=0;entryY=0.5;entryDx=0;entryDy=0;" parent="1" source="QcYhOKtaJUYR_8YwgSNl-22" target="QcYhOKtaJUYR_8YwgSNl-12" edge="1">
          <mxGeometry width="50" height="50" relative="1" as="geometry">
            <mxPoint x="-366" y="1082.44" as="sourcePoint" />
            <mxPoint x="261.8499999999999" y="815.0000000000002" as="targetPoint" />
            <Array as="points" />
          </mxGeometry>
        </mxCell>
        <mxCell id="tsS1E2rS6Lll62WBFHYo-77" value="" style="endArrow=none;html=1;rounded=0;exitX=1;exitY=0.3333333333333333;exitDx=0;exitDy=0;exitPerimeter=0;entryX=0;entryY=0.5;entryDx=0;entryDy=0;" parent="1" source="QcYhOKtaJUYR_8YwgSNl-22" target="QcYhOKtaJUYR_8YwgSNl-11" edge="1">
          <mxGeometry width="50" height="50" relative="1" as="geometry">
            <mxPoint x="-326" y="1117" as="sourcePoint" />
            <mxPoint x="396" y="774" as="targetPoint" />
            <Array as="points" />
          </mxGeometry>
        </mxCell>
        <mxCell id="tsS1E2rS6Lll62WBFHYo-79" value="" style="endArrow=none;html=1;rounded=0;exitX=1;exitY=0.3333333333333333;exitDx=0;exitDy=0;exitPerimeter=0;entryX=0;entryY=0.5;entryDx=0;entryDy=0;" parent="1" source="QcYhOKtaJUYR_8YwgSNl-22" target="QcYhOKtaJUYR_8YwgSNl-3" edge="1">
          <mxGeometry width="50" height="50" relative="1" as="geometry">
            <mxPoint x="-326" y="1117" as="sourcePoint" />
            <mxPoint x="567" y="779" as="targetPoint" />
            <Array as="points" />
          </mxGeometry>
        </mxCell>
        <mxCell id="tsS1E2rS6Lll62WBFHYo-82" value="&amp;lt;&amp;lt;Include&amp;gt;&amp;gt;" style="endArrow=open;endSize=12;dashed=1;html=1;rounded=0;exitX=0.5;exitY=0;exitDx=0;exitDy=0;entryX=0.5;entryY=1;entryDx=0;entryDy=0;" parent="1" source="QcYhOKtaJUYR_8YwgSNl-3" target="QcYhOKtaJUYR_8YwgSNl-10" edge="1">
          <mxGeometry x="-0.274" y="5" width="160" relative="1" as="geometry">
            <mxPoint x="770" y="321" as="sourcePoint" />
            <mxPoint x="825" y="260" as="targetPoint" />
            <mxPoint as="offset" />
          </mxGeometry>
        </mxCell>
        <mxCell id="tsS1E2rS6Lll62WBFHYo-83" value="&amp;lt;&amp;lt;Include&amp;gt;&amp;gt;" style="endArrow=open;endSize=12;dashed=1;html=1;rounded=0;exitX=0.5;exitY=0;exitDx=0;exitDy=0;entryX=0.799;entryY=0.835;entryDx=0;entryDy=0;entryPerimeter=0;" parent="1" source="QcYhOKtaJUYR_8YwgSNl-3" target="QcYhOKtaJUYR_8YwgSNl-8" edge="1">
          <mxGeometry x="-0.274" y="5" width="160" relative="1" as="geometry">
            <mxPoint x="760" y="704" as="sourcePoint" />
            <mxPoint x="572" y="96" as="targetPoint" />
            <mxPoint as="offset" />
          </mxGeometry>
        </mxCell>
        <mxCell id="tsS1E2rS6Lll62WBFHYo-85" value="&amp;lt;&amp;lt;Include&amp;gt;&amp;gt;" style="endArrow=open;endSize=12;dashed=1;html=1;rounded=0;exitX=0.5;exitY=0;exitDx=0;exitDy=0;entryX=0.794;entryY=0.764;entryDx=0;entryDy=0;entryPerimeter=0;" parent="1" source="QcYhOKtaJUYR_8YwgSNl-3" target="QcYhOKtaJUYR_8YwgSNl-60" edge="1">
          <mxGeometry x="-0.274" y="5" width="160" relative="1" as="geometry">
            <mxPoint x="680" y="769" as="sourcePoint" />
            <mxPoint x="471" y="196" as="targetPoint" />
            <mxPoint as="offset" />
          </mxGeometry>
        </mxCell>
        <mxCell id="tsS1E2rS6Lll62WBFHYo-86" value="&amp;lt;&amp;lt;Include&amp;gt;&amp;gt;" style="endArrow=open;endSize=12;dashed=1;html=1;rounded=0;exitX=0.5;exitY=0;exitDx=0;exitDy=0;entryX=1;entryY=1;entryDx=0;entryDy=0;" parent="1" source="QcYhOKtaJUYR_8YwgSNl-3" target="QcYhOKtaJUYR_8YwgSNl-6" edge="1">
          <mxGeometry x="-0.274" y="5" width="160" relative="1" as="geometry">
            <mxPoint x="785" y="772" as="sourcePoint" />
            <mxPoint x="461" y="267" as="targetPoint" />
            <mxPoint as="offset" />
          </mxGeometry>
        </mxCell>
        <mxCell id="tsS1E2rS6Lll62WBFHYo-87" value="&amp;lt;&amp;lt;Include&amp;gt;&amp;gt;" style="endArrow=open;endSize=12;dashed=1;html=1;rounded=0;exitX=0.5;exitY=0;exitDx=0;exitDy=0;entryX=1;entryY=1;entryDx=0;entryDy=0;" parent="1" source="QcYhOKtaJUYR_8YwgSNl-3" target="QcYhOKtaJUYR_8YwgSNl-13" edge="1">
          <mxGeometry x="-0.274" y="5" width="160" relative="1" as="geometry">
            <mxPoint x="752" y="742" as="sourcePoint" />
            <mxPoint x="368" y="300" as="targetPoint" />
            <mxPoint as="offset" />
          </mxGeometry>
        </mxCell>
        <mxCell id="tsS1E2rS6Lll62WBFHYo-98" value="" style="endArrow=none;html=1;rounded=0;exitX=1;exitY=0.3333333333333333;exitDx=0;exitDy=0;exitPerimeter=0;entryX=0;entryY=0.5;entryDx=0;entryDy=0;" parent="1" source="QcYhOKtaJUYR_8YwgSNl-21" target="QcYhOKtaJUYR_8YwgSNl-7" edge="1">
          <mxGeometry width="50" height="50" relative="1" as="geometry">
            <mxPoint x="-402" y="311" as="sourcePoint" />
            <mxPoint x="519" y="62" as="targetPoint" />
            <Array as="points" />
          </mxGeometry>
        </mxCell>
        <mxCell id="tsS1E2rS6Lll62WBFHYo-108" value="" style="endArrow=none;html=1;rounded=0;exitX=1;exitY=0.3333333333333333;exitDx=0;exitDy=0;exitPerimeter=0;entryX=0;entryY=0.5;entryDx=0;entryDy=0;" parent="1" source="QcYhOKtaJUYR_8YwgSNl-21" target="QcYhOKtaJUYR_8YwgSNl-9" edge="1">
          <mxGeometry width="50" height="50" relative="1" as="geometry">
            <mxPoint x="-356" y="389" as="sourcePoint" />
            <mxPoint x="357" y="363" as="targetPoint" />
          </mxGeometry>
        </mxCell>
        <mxCell id="tsS1E2rS6Lll62WBFHYo-109" value="&amp;lt;&amp;lt;Include&amp;gt;&amp;gt;" style="endArrow=open;endSize=12;dashed=1;html=1;rounded=0;exitX=0.5;exitY=0;exitDx=0;exitDy=0;entryX=1;entryY=0.5;entryDx=0;entryDy=0;" parent="1" source="QcYhOKtaJUYR_8YwgSNl-3" target="QcYhOKtaJUYR_8YwgSNl-9" edge="1">
          <mxGeometry x="-0.274" y="5" width="160" relative="1" as="geometry">
            <mxPoint x="929" y="619" as="sourcePoint" />
            <mxPoint x="477" y="374" as="targetPoint" />
            <mxPoint as="offset" />
          </mxGeometry>
        </mxCell>
        <mxCell id="tsS1E2rS6Lll62WBFHYo-111" value="&amp;lt;&amp;lt;Include&amp;gt;&amp;gt;" style="endArrow=open;endSize=12;dashed=1;html=1;rounded=0;exitX=0;exitY=0.5;exitDx=0;exitDy=0;entryX=0.451;entryY=0.945;entryDx=0;entryDy=0;entryPerimeter=0;" parent="1" source="QcYhOKtaJUYR_8YwgSNl-3" target="QcYhOKtaJUYR_8YwgSNl-11" edge="1">
          <mxGeometry x="0.5567" width="160" relative="1" as="geometry">
            <mxPoint x="1012" y="718" as="sourcePoint" />
            <mxPoint x="582" y="549" as="targetPoint" />
            <mxPoint as="offset" />
            <Array as="points">
              <mxPoint x="394" y="943" />
            </Array>
          </mxGeometry>
        </mxCell>
        <mxCell id="tsS1E2rS6Lll62WBFHYo-113" value="&amp;lt;&amp;lt;Include&amp;gt;&amp;gt;" style="endArrow=open;endSize=12;dashed=1;html=1;rounded=0;entryX=0.445;entryY=0.966;entryDx=0;entryDy=0;exitX=0;exitY=0.5;exitDx=0;exitDy=0;entryPerimeter=0;" parent="1" source="QcYhOKtaJUYR_8YwgSNl-3" target="QcYhOKtaJUYR_8YwgSNl-64" edge="1">
          <mxGeometry x="0.3226" width="160" relative="1" as="geometry">
            <mxPoint x="855" y="625" as="sourcePoint" />
            <mxPoint x="611" y="684" as="targetPoint" />
            <mxPoint as="offset" />
            <Array as="points">
              <mxPoint x="381" y="1050" />
              <mxPoint x="-47" y="1043" />
            </Array>
          </mxGeometry>
        </mxCell>
        <mxCell id="tsS1E2rS6Lll62WBFHYo-114" value="&amp;lt;&amp;lt;Include&amp;gt;&amp;gt;" style="endArrow=open;endSize=12;dashed=1;html=1;rounded=0;exitX=0.5;exitY=0;exitDx=0;exitDy=0;entryX=0.5;entryY=1;entryDx=0;entryDy=0;" parent="1" source="QcYhOKtaJUYR_8YwgSNl-3" target="QcYhOKtaJUYR_8YwgSNl-7" edge="1">
          <mxGeometry x="-0.274" y="5" width="160" relative="1" as="geometry">
            <mxPoint x="1002" y="607.5" as="sourcePoint" />
            <mxPoint x="858" y="98.5" as="targetPoint" />
            <mxPoint as="offset" />
          </mxGeometry>
        </mxCell>
        <mxCell id="tsS1E2rS6Lll62WBFHYo-115" value="&amp;lt;&amp;lt;Include&amp;gt;&amp;gt;" style="endArrow=open;endSize=12;dashed=1;html=1;rounded=0;entryX=0.5;entryY=1;entryDx=0;entryDy=0;exitX=0;exitY=0.5;exitDx=0;exitDy=0;" parent="1" source="QcYhOKtaJUYR_8YwgSNl-3" target="QcYhOKtaJUYR_8YwgSNl-5" edge="1">
          <mxGeometry x="0.2689" y="-1" width="160" relative="1" as="geometry">
            <mxPoint x="669" y="670" as="sourcePoint" />
            <mxPoint x="70" y="764" as="targetPoint" />
            <mxPoint as="offset" />
            <Array as="points">
              <mxPoint x="370" y="1085" />
              <mxPoint x="261" y="1085" />
              <mxPoint x="93" y="1082" />
              <mxPoint x="-234" y="1075" />
            </Array>
          </mxGeometry>
        </mxCell>
        <mxCell id="tsS1E2rS6Lll62WBFHYo-116" value="&amp;lt;&amp;lt;Include&amp;gt;&amp;gt;" style="endArrow=open;endSize=12;dashed=1;html=1;rounded=0;entryX=0.5;entryY=1;entryDx=0;entryDy=0;exitX=0;exitY=0.5;exitDx=0;exitDy=0;" parent="1" source="QcYhOKtaJUYR_8YwgSNl-3" target="QcYhOKtaJUYR_8YwgSNl-12" edge="1">
          <mxGeometry x="0.3637" width="160" relative="1" as="geometry">
            <mxPoint x="892" y="681" as="sourcePoint" />
            <mxPoint x="66" y="814" as="targetPoint" />
            <mxPoint as="offset" />
            <Array as="points">
              <mxPoint x="388" y="1015" />
              <mxPoint x="189" y="1015" />
            </Array>
          </mxGeometry>
        </mxCell>
        <mxCell id="tsS1E2rS6Lll62WBFHYo-117" value="" style="endArrow=none;html=1;rounded=0;exitX=1;exitY=0.3333333333333333;exitDx=0;exitDy=0;exitPerimeter=0;entryX=0;entryY=0.5;entryDx=0;entryDy=0;" parent="1" source="QcYhOKtaJUYR_8YwgSNl-21" target="QcYhOKtaJUYR_8YwgSNl-3" edge="1">
          <mxGeometry width="50" height="50" relative="1" as="geometry">
            <mxPoint x="-308" y="378" as="sourcePoint" />
            <mxPoint x="504" y="674" as="targetPoint" />
            <Array as="points" />
          </mxGeometry>
        </mxCell>
        <mxCell id="tsS1E2rS6Lll62WBFHYo-121" value="&amp;lt;&amp;lt;Include&amp;gt;&amp;gt;" style="endArrow=open;endSize=12;dashed=1;html=1;rounded=0;exitX=0;exitY=0.5;exitDx=0;exitDy=0;entryX=1;entryY=0.5;entryDx=0;entryDy=0;" parent="1" source="QcYhOKtaJUYR_8YwgSNl-3" target="QcYhOKtaJUYR_8YwgSNl-14" edge="1">
          <mxGeometry x="0.786" width="160" relative="1" as="geometry">
            <mxPoint x="1019" y="1280" as="sourcePoint" />
            <mxPoint x="627" y="1026" as="targetPoint" />
            <mxPoint x="1" as="offset" />
            <Array as="points" />
          </mxGeometry>
        </mxCell>
        <mxCell id="tsS1E2rS6Lll62WBFHYo-124" value="&amp;lt;&amp;lt;Include&amp;gt;&amp;gt;" style="endArrow=open;endSize=12;dashed=1;html=1;rounded=0;exitX=0;exitY=0.5;exitDx=0;exitDy=0;entryX=1;entryY=0.5;entryDx=0;entryDy=0;" parent="1" source="QcYhOKtaJUYR_8YwgSNl-3" target="QcYhOKtaJUYR_8YwgSNl-15" edge="1">
          <mxGeometry x="0.786" width="160" relative="1" as="geometry">
            <mxPoint x="960" y="721" as="sourcePoint" />
            <mxPoint x="485" y="1184" as="targetPoint" />
            <mxPoint x="1" as="offset" />
            <Array as="points" />
          </mxGeometry>
        </mxCell>
        <mxCell id="tsS1E2rS6Lll62WBFHYo-125" value="" style="endArrow=none;html=1;rounded=0;exitX=1;exitY=0.3333333333333333;exitDx=0;exitDy=0;exitPerimeter=0;entryX=0;entryY=0.5;entryDx=0;entryDy=0;" parent="1" source="QcYhOKtaJUYR_8YwgSNl-22" target="QcYhOKtaJUYR_8YwgSNl-14" edge="1">
          <mxGeometry width="50" height="50" relative="1" as="geometry">
            <mxPoint x="-378" y="1300" as="sourcePoint" />
            <mxPoint x="385" y="1276" as="targetPoint" />
            <Array as="points" />
          </mxGeometry>
        </mxCell>
        <mxCell id="tsS1E2rS6Lll62WBFHYo-126" value="" style="endArrow=none;html=1;rounded=0;exitX=1;exitY=0.3333333333333333;exitDx=0;exitDy=0;exitPerimeter=0;entryX=0;entryY=0.5;entryDx=0;entryDy=0;" parent="1" source="QcYhOKtaJUYR_8YwgSNl-22" target="QcYhOKtaJUYR_8YwgSNl-15" edge="1">
          <mxGeometry width="50" height="50" relative="1" as="geometry">
            <mxPoint x="-372" y="1309" as="sourcePoint" />
            <mxPoint x="237" y="1304" as="targetPoint" />
            <Array as="points" />
          </mxGeometry>
        </mxCell>
        <mxCell id="tsS1E2rS6Lll62WBFHYo-127" value="" style="endArrow=none;html=1;rounded=0;exitX=1;exitY=0.3333333333333333;exitDx=0;exitDy=0;exitPerimeter=0;entryX=0;entryY=0.5;entryDx=0;entryDy=0;" parent="1" source="QcYhOKtaJUYR_8YwgSNl-22" target="QcYhOKtaJUYR_8YwgSNl-16" edge="1">
          <mxGeometry width="50" height="50" relative="1" as="geometry">
            <mxPoint x="-386" y="1348" as="sourcePoint" />
            <mxPoint x="223" y="1343" as="targetPoint" />
            <Array as="points" />
          </mxGeometry>
        </mxCell>
        <mxCell id="tsS1E2rS6Lll62WBFHYo-128" value="" style="endArrow=none;html=1;rounded=0;exitX=1;exitY=0.3333333333333333;exitDx=0;exitDy=0;exitPerimeter=0;entryX=0;entryY=0.5;entryDx=0;entryDy=0;" parent="1" source="QcYhOKtaJUYR_8YwgSNl-22" target="QcYhOKtaJUYR_8YwgSNl-17" edge="1">
          <mxGeometry width="50" height="50" relative="1" as="geometry">
            <mxPoint x="-354" y="1379" as="sourcePoint" />
            <mxPoint x="255" y="1374" as="targetPoint" />
            <Array as="points" />
          </mxGeometry>
        </mxCell>
        <mxCell id="tsS1E2rS6Lll62WBFHYo-129" value="" style="endArrow=none;html=1;rounded=0;exitX=1;exitY=0.3333333333333333;exitDx=0;exitDy=0;exitPerimeter=0;entryX=0;entryY=0.5;entryDx=0;entryDy=0;" parent="1" source="QcYhOKtaJUYR_8YwgSNl-22" target="QcYhOKtaJUYR_8YwgSNl-45" edge="1">
          <mxGeometry width="50" height="50" relative="1" as="geometry">
            <mxPoint x="-306" y="1420" as="sourcePoint" />
            <mxPoint x="303" y="1415" as="targetPoint" />
            <Array as="points" />
          </mxGeometry>
        </mxCell>
        <mxCell id="tsS1E2rS6Lll62WBFHYo-139" value="" style="endArrow=none;html=1;rounded=0;exitX=1;exitY=0.3333333333333333;exitDx=0;exitDy=0;exitPerimeter=0;entryX=0;entryY=0.5;entryDx=0;entryDy=0;" parent="1" source="QcYhOKtaJUYR_8YwgSNl-22" target="QcYhOKtaJUYR_8YwgSNl-62" edge="1">
          <mxGeometry width="50" height="50" relative="1" as="geometry">
            <mxPoint x="-366" y="1169" as="sourcePoint" />
            <mxPoint x="146" y="1400" as="targetPoint" />
            <Array as="points" />
          </mxGeometry>
        </mxCell>
        <mxCell id="tsS1E2rS6Lll62WBFHYo-140" value="" style="endArrow=none;html=1;rounded=0;exitX=1;exitY=0.3333333333333333;exitDx=0;exitDy=0;exitPerimeter=0;entryX=0;entryY=0.5;entryDx=0;entryDy=0;" parent="1" source="QcYhOKtaJUYR_8YwgSNl-22" target="QcYhOKtaJUYR_8YwgSNl-49" edge="1">
          <mxGeometry width="50" height="50" relative="1" as="geometry">
            <mxPoint x="-369" y="1223" as="sourcePoint" />
            <mxPoint x="143" y="1454" as="targetPoint" />
            <Array as="points" />
          </mxGeometry>
        </mxCell>
        <mxCell id="tsS1E2rS6Lll62WBFHYo-141" value="Forgot Password" style="ellipse;whiteSpace=wrap;html=1;" parent="1" vertex="1">
          <mxGeometry x="1101.5" y="499" width="130" height="30" as="geometry" />
        </mxCell>
        <mxCell id="tsS1E2rS6Lll62WBFHYo-142" value="&amp;lt;&amp;lt;Extend&amp;gt;&amp;gt;" style="endArrow=open;endSize=12;dashed=1;html=1;rounded=0;exitX=0.324;exitY=1.011;exitDx=0;exitDy=0;entryX=0.815;entryY=0.127;entryDx=0;entryDy=0;exitPerimeter=0;entryPerimeter=0;" parent="1" source="tsS1E2rS6Lll62WBFHYo-141" target="QcYhOKtaJUYR_8YwgSNl-3" edge="1">
          <mxGeometry x="-0.0358" y="-1" width="160" relative="1" as="geometry">
            <mxPoint x="1190" y="926" as="sourcePoint" />
            <mxPoint x="1233" y="790" as="targetPoint" />
            <mxPoint x="-1" as="offset" />
            <Array as="points" />
          </mxGeometry>
        </mxCell>
        <mxCell id="tsS1E2rS6Lll62WBFHYo-144" value="Review Management" style="ellipse;whiteSpace=wrap;html=1;" parent="1" vertex="1">
          <mxGeometry x="1002.5" y="1365" width="150" height="30" as="geometry" />
        </mxCell>
        <mxCell id="tsS1E2rS6Lll62WBFHYo-146" value="" style="endArrow=none;html=1;rounded=0;entryX=1;entryY=0.5;entryDx=0;entryDy=0;exitX=0;exitY=0.3333333333333333;exitDx=0;exitDy=0;exitPerimeter=0;" parent="1" source="QcYhOKtaJUYR_8YwgSNl-23" target="tsS1E2rS6Lll62WBFHYo-144" edge="1">
          <mxGeometry width="50" height="50" relative="1" as="geometry">
            <mxPoint x="1556" y="1492" as="sourcePoint" />
            <mxPoint x="1265" y="1482" as="targetPoint" />
          </mxGeometry>
        </mxCell>
        <mxCell id="tsS1E2rS6Lll62WBFHYo-153" value="&amp;lt;&amp;lt;Include&amp;gt;&amp;gt;" style="endArrow=open;endSize=12;dashed=1;html=1;rounded=0;exitX=0;exitY=0.5;exitDx=0;exitDy=0;entryX=1;entryY=0.5;entryDx=0;entryDy=0;" parent="1" source="QcYhOKtaJUYR_8YwgSNl-3" target="QcYhOKtaJUYR_8YwgSNl-16" edge="1">
          <mxGeometry x="0.786" width="160" relative="1" as="geometry">
            <mxPoint x="864" y="634" as="sourcePoint" />
            <mxPoint x="116" y="1167" as="targetPoint" />
            <mxPoint x="1" as="offset" />
            <Array as="points" />
          </mxGeometry>
        </mxCell>
        <mxCell id="tsS1E2rS6Lll62WBFHYo-154" value="&amp;lt;&amp;lt;Include&amp;gt;&amp;gt;" style="endArrow=open;endSize=12;dashed=1;html=1;rounded=0;exitX=0;exitY=0.5;exitDx=0;exitDy=0;entryX=1;entryY=0.5;entryDx=0;entryDy=0;" parent="1" source="QcYhOKtaJUYR_8YwgSNl-3" target="QcYhOKtaJUYR_8YwgSNl-17" edge="1">
          <mxGeometry x="0.786" width="160" relative="1" as="geometry">
            <mxPoint x="864" y="634" as="sourcePoint" />
            <mxPoint x="213" y="1225" as="targetPoint" />
            <mxPoint x="1" as="offset" />
            <Array as="points" />
          </mxGeometry>
        </mxCell>
        <mxCell id="tsS1E2rS6Lll62WBFHYo-156" value="&amp;lt;&amp;lt;Include&amp;gt;&amp;gt;" style="endArrow=open;endSize=12;dashed=1;html=1;rounded=0;exitX=0;exitY=0.5;exitDx=0;exitDy=0;entryX=1;entryY=0.5;entryDx=0;entryDy=0;" parent="1" source="QcYhOKtaJUYR_8YwgSNl-3" target="QcYhOKtaJUYR_8YwgSNl-45" edge="1">
          <mxGeometry x="0.786" width="160" relative="1" as="geometry">
            <mxPoint x="864" y="634" as="sourcePoint" />
            <mxPoint x="296" y="1274" as="targetPoint" />
            <mxPoint x="1" as="offset" />
            <Array as="points" />
          </mxGeometry>
        </mxCell>
        <mxCell id="tsS1E2rS6Lll62WBFHYo-157" value="&amp;lt;&amp;lt;Include&amp;gt;&amp;gt;" style="endArrow=open;endSize=12;dashed=1;html=1;rounded=0;exitX=0;exitY=0.5;exitDx=0;exitDy=0;entryX=1;entryY=0.5;entryDx=0;entryDy=0;" parent="1" source="QcYhOKtaJUYR_8YwgSNl-3" target="QcYhOKtaJUYR_8YwgSNl-62" edge="1">
          <mxGeometry x="0.786" width="160" relative="1" as="geometry">
            <mxPoint x="834" y="680" as="sourcePoint" />
            <mxPoint x="341" y="1370" as="targetPoint" />
            <mxPoint x="1" as="offset" />
            <Array as="points" />
          </mxGeometry>
        </mxCell>
        <mxCell id="tsS1E2rS6Lll62WBFHYo-158" value="&amp;lt;&amp;lt;Include&amp;gt;&amp;gt;" style="endArrow=open;endSize=12;dashed=1;html=1;rounded=0;exitX=0;exitY=0.5;exitDx=0;exitDy=0;entryX=1;entryY=0.5;entryDx=0;entryDy=0;" parent="1" source="QcYhOKtaJUYR_8YwgSNl-3" target="QcYhOKtaJUYR_8YwgSNl-49" edge="1">
          <mxGeometry x="0.786" width="160" relative="1" as="geometry">
            <mxPoint x="894" y="892" as="sourcePoint" />
            <mxPoint x="326" y="1532" as="targetPoint" />
            <mxPoint x="1" as="offset" />
            <Array as="points" />
          </mxGeometry>
        </mxCell>
        <mxCell id="tsS1E2rS6Lll62WBFHYo-161" value="Payment Reference" style="ellipse;whiteSpace=wrap;html=1;" parent="1" vertex="1">
          <mxGeometry x="534" y="746" width="130" height="30" as="geometry" />
        </mxCell>
        <mxCell id="tsS1E2rS6Lll62WBFHYo-163" value="" style="endArrow=none;html=1;rounded=0;exitX=1;exitY=0.3333333333333333;exitDx=0;exitDy=0;exitPerimeter=0;entryX=0;entryY=0.5;entryDx=0;entryDy=0;" parent="1" source="QcYhOKtaJUYR_8YwgSNl-22" target="tsS1E2rS6Lll62WBFHYo-161" edge="1">
          <mxGeometry width="50" height="50" relative="1" as="geometry">
            <mxPoint x="-606" y="1119" as="sourcePoint" />
            <mxPoint x="598.9999999999998" y="775" as="targetPoint" />
            <Array as="points" />
          </mxGeometry>
        </mxCell>
        <mxCell id="tsS1E2rS6Lll62WBFHYo-165" value="" style="endArrow=none;html=1;rounded=0;exitX=1;exitY=0.3333333333333333;exitDx=0;exitDy=0;exitPerimeter=0;entryX=0;entryY=0.5;entryDx=0;entryDy=0;" parent="1" source="QcYhOKtaJUYR_8YwgSNl-21" target="tsS1E2rS6Lll62WBFHYo-161" edge="1">
          <mxGeometry width="50" height="50" relative="1" as="geometry">
            <mxPoint x="-356" y="1102" as="sourcePoint" />
            <mxPoint x="-70" y="952" as="targetPoint" />
            <Array as="points" />
          </mxGeometry>
        </mxCell>
        <mxCell id="tsS1E2rS6Lll62WBFHYo-166" value="&amp;lt;&amp;lt;Include&amp;gt;&amp;gt;" style="endArrow=open;endSize=12;dashed=1;html=1;rounded=0;exitX=0;exitY=0.5;exitDx=0;exitDy=0;entryX=0.682;entryY=0.956;entryDx=0;entryDy=0;entryPerimeter=0;" parent="1" source="QcYhOKtaJUYR_8YwgSNl-3" target="tsS1E2rS6Lll62WBFHYo-161" edge="1">
          <mxGeometry x="0.353" y="-1" width="160" relative="1" as="geometry">
            <mxPoint x="619" y="721" as="sourcePoint" />
            <mxPoint x="189" y="916" as="targetPoint" />
            <mxPoint as="offset" />
            <Array as="points">
              <mxPoint x="623" y="812" />
            </Array>
          </mxGeometry>
        </mxCell>
        <mxCell id="tsS1E2rS6Lll62WBFHYo-167" value="&amp;lt;&amp;lt;Extend&amp;gt;&amp;gt;" style="endArrow=open;endSize=12;dashed=1;html=1;rounded=0;exitX=0;exitY=0.5;exitDx=0;exitDy=0;entryX=0.5;entryY=1;entryDx=0;entryDy=0;" parent="1" source="QcYhOKtaJUYR_8YwgSNl-48" target="tsS1E2rS6Lll62WBFHYo-161" edge="1">
          <mxGeometry x="-0.4333" width="160" relative="1" as="geometry">
            <mxPoint x="789" y="1076" as="sourcePoint" />
            <mxPoint x="832" y="940" as="targetPoint" />
            <mxPoint as="offset" />
            <Array as="points">
              <mxPoint x="609" y="1252" />
            </Array>
          </mxGeometry>
        </mxCell>
        <mxCell id="tsS1E2rS6Lll62WBFHYo-192" value="Submit Completed Service Request From" style="ellipse;whiteSpace=wrap;html=1;" parent="1" vertex="1">
          <mxGeometry x="243" y="301" width="253" height="43" as="geometry" />
        </mxCell>
        <mxCell id="tsS1E2rS6Lll62WBFHYo-193" value="" style="endArrow=none;html=1;rounded=0;exitX=1;exitY=0.3333333333333333;exitDx=0;exitDy=0;exitPerimeter=0;entryX=0;entryY=0.5;entryDx=0;entryDy=0;" parent="1" source="QcYhOKtaJUYR_8YwgSNl-21" target="tsS1E2rS6Lll62WBFHYo-192" edge="1">
          <mxGeometry width="50" height="50" relative="1" as="geometry">
            <mxPoint x="-356" y="389" as="sourcePoint" />
            <mxPoint x="494" y="399" as="targetPoint" />
            <Array as="points" />
          </mxGeometry>
        </mxCell>
        <mxCell id="tsS1E2rS6Lll62WBFHYo-194" value="View and Choose a Payment Method" style="ellipse;whiteSpace=wrap;html=1;" parent="1" vertex="1">
          <mxGeometry x="144" y="478" width="225" height="30" as="geometry" />
        </mxCell>
        <mxCell id="tsS1E2rS6Lll62WBFHYo-195" value="&amp;lt;&amp;lt;Include&amp;gt;&amp;gt;" style="endArrow=open;endSize=12;dashed=1;html=1;rounded=0;exitX=0.5;exitY=0;exitDx=0;exitDy=0;entryX=1;entryY=0.5;entryDx=0;entryDy=0;" parent="1" source="QcYhOKtaJUYR_8YwgSNl-3" target="tsS1E2rS6Lll62WBFHYo-192" edge="1">
          <mxGeometry x="-0.274" y="5" width="160" relative="1" as="geometry">
            <mxPoint x="990" y="791" as="sourcePoint" />
            <mxPoint x="606" y="367" as="targetPoint" />
            <mxPoint as="offset" />
          </mxGeometry>
        </mxCell>
        <mxCell id="tsS1E2rS6Lll62WBFHYo-196" value="&amp;lt;&amp;lt;include&amp;gt;&amp;gt;" style="endArrow=open;endSize=12;dashed=1;html=1;rounded=0;entryX=0.666;entryY=0.016;entryDx=0;entryDy=0;exitX=0.423;exitY=1.011;exitDx=0;exitDy=0;exitPerimeter=0;entryPerimeter=0;" parent="1" source="QcYhOKtaJUYR_8YwgSNl-9" target="tsS1E2rS6Lll62WBFHYo-194" edge="1">
          <mxGeometry x="0.3725" y="-2" width="160" relative="1" as="geometry">
            <mxPoint x="453" y="752" as="sourcePoint" />
            <mxPoint x="450" y="535" as="targetPoint" />
            <mxPoint as="offset" />
            <Array as="points" />
          </mxGeometry>
        </mxCell>
        <mxCell id="tsS1E2rS6Lll62WBFHYo-197" value="Receive Payment&amp;nbsp;" style="ellipse;whiteSpace=wrap;html=1;" parent="1" vertex="1">
          <mxGeometry x="-170" y="1625" width="192" height="30" as="geometry" />
        </mxCell>
        <mxCell id="tsS1E2rS6Lll62WBFHYo-198" value="&amp;lt;&amp;lt;include&amp;gt;&amp;gt;" style="endArrow=open;endSize=12;dashed=1;html=1;rounded=0;entryX=0.5;entryY=1;entryDx=0;entryDy=0;exitX=0.418;exitY=0.993;exitDx=0;exitDy=0;exitPerimeter=0;" parent="1" source="QcYhOKtaJUYR_8YwgSNl-49" target="tsS1E2rS6Lll62WBFHYo-197" edge="1">
          <mxGeometry x="0.1377" width="160" relative="1" as="geometry">
            <mxPoint x="571" y="1648" as="sourcePoint" />
            <mxPoint x="572" y="1478" as="targetPoint" />
            <mxPoint as="offset" />
            <Array as="points">
              <mxPoint x="197" y="1702" />
              <mxPoint x="97" y="1702" />
              <mxPoint x="2" y="1699" />
              <mxPoint x="-76" y="1699" />
            </Array>
          </mxGeometry>
        </mxCell>
        <mxCell id="tsS1E2rS6Lll62WBFHYo-200" value="Upload Required Documents" style="ellipse;whiteSpace=wrap;html=1;" parent="1" vertex="1">
          <mxGeometry x="114" y="1145" width="188" height="30" as="geometry" />
        </mxCell>
        <mxCell id="tsS1E2rS6Lll62WBFHYo-201" value="" style="endArrow=none;html=1;rounded=0;exitX=1;exitY=0.3333333333333333;exitDx=0;exitDy=0;exitPerimeter=0;entryX=0;entryY=0.5;entryDx=0;entryDy=0;" parent="1" source="QcYhOKtaJUYR_8YwgSNl-22" target="tsS1E2rS6Lll62WBFHYo-200" edge="1">
          <mxGeometry width="50" height="50" relative="1" as="geometry">
            <mxPoint x="-599" y="1115" as="sourcePoint" />
            <mxPoint x="50" y="1336" as="targetPoint" />
            <Array as="points" />
          </mxGeometry>
        </mxCell>
        <mxCell id="tsS1E2rS6Lll62WBFHYo-202" value="&amp;lt;&amp;lt;Include&amp;gt;&amp;gt;" style="endArrow=open;endSize=12;dashed=1;html=1;rounded=0;exitX=0;exitY=0.5;exitDx=0;exitDy=0;entryX=1;entryY=0.5;entryDx=0;entryDy=0;" parent="1" source="QcYhOKtaJUYR_8YwgSNl-3" target="tsS1E2rS6Lll62WBFHYo-200" edge="1">
          <mxGeometry x="0.786" width="160" relative="1" as="geometry">
            <mxPoint x="925" y="806" as="sourcePoint" />
            <mxPoint x="186" y="1336" as="targetPoint" />
            <mxPoint x="1" as="offset" />
            <Array as="points" />
          </mxGeometry>
        </mxCell>
        <mxCell id="tsS1E2rS6Lll62WBFHYo-206" value="" style="endArrow=none;html=1;rounded=0;exitX=1;exitY=0.3333333333333333;exitDx=0;exitDy=0;exitPerimeter=0;entryX=0;entryY=0.5;entryDx=0;entryDy=0;" parent="1" source="QcYhOKtaJUYR_8YwgSNl-22" target="QcYhOKtaJUYR_8YwgSNl-67" edge="1">
          <mxGeometry width="50" height="50" relative="1" as="geometry">
            <mxPoint x="-599" y="1115" as="sourcePoint" />
            <mxPoint x="107" y="1533" as="targetPoint" />
            <Array as="points" />
          </mxGeometry>
        </mxCell>
        <mxCell id="tsS1E2rS6Lll62WBFHYo-207" value="&amp;lt;&amp;lt;Include&amp;gt;&amp;gt;" style="endArrow=open;endSize=12;dashed=1;html=1;rounded=0;exitX=0;exitY=0.5;exitDx=0;exitDy=0;entryX=1;entryY=0.5;entryDx=0;entryDy=0;" parent="1" source="QcYhOKtaJUYR_8YwgSNl-3" target="QcYhOKtaJUYR_8YwgSNl-67" edge="1">
          <mxGeometry x="0.786" width="160" relative="1" as="geometry">
            <mxPoint x="925" y="806" as="sourcePoint" />
            <mxPoint x="272" y="1482" as="targetPoint" />
            <mxPoint x="1" as="offset" />
            <Array as="points" />
          </mxGeometry>
        </mxCell>
        <mxCell id="tsS1E2rS6Lll62WBFHYo-220" value="Verify Documents" style="ellipse;whiteSpace=wrap;html=1;" parent="1" vertex="1">
          <mxGeometry x="764" y="1553" width="129" height="30" as="geometry" />
        </mxCell>
        <mxCell id="tsS1E2rS6Lll62WBFHYo-222" value="&amp;lt;&amp;lt;include&amp;gt;&amp;gt;" style="endArrow=open;endSize=12;dashed=1;html=1;rounded=0;entryX=0.677;entryY=0.041;entryDx=0;entryDy=0;exitX=0.383;exitY=1.02;exitDx=0;exitDy=0;exitPerimeter=0;entryPerimeter=0;" parent="1" source="QcYhOKtaJUYR_8YwgSNl-19" target="tsS1E2rS6Lll62WBFHYo-220" edge="1">
          <mxGeometry x="0.1377" width="160" relative="1" as="geometry">
            <mxPoint x="1065" y="1610" as="sourcePoint" />
            <mxPoint x="793" y="1552" as="targetPoint" />
            <mxPoint as="offset" />
            <Array as="points" />
          </mxGeometry>
        </mxCell>
        <mxCell id="tsS1E2rS6Lll62WBFHYo-223" value="&amp;lt;&amp;lt;include&amp;gt;&amp;gt;" style="endArrow=open;endSize=12;dashed=1;html=1;rounded=0;entryX=1;entryY=0.5;entryDx=0;entryDy=0;exitX=0.431;exitY=0.975;exitDx=0;exitDy=0;exitPerimeter=0;" parent="1" source="QcYhOKtaJUYR_8YwgSNl-60" target="QcYhOKtaJUYR_8YwgSNl-6" edge="1">
          <mxGeometry x="-0.0959" width="160" relative="1" as="geometry">
            <mxPoint x="668" y="224" as="sourcePoint" />
            <mxPoint x="645" y="274" as="targetPoint" />
            <mxPoint x="1" as="offset" />
            <Array as="points" />
          </mxGeometry>
        </mxCell>
        <mxCell id="tsS1E2rS6Lll62WBFHYo-224" value="&amp;lt;&amp;lt;Extend&amp;gt;&amp;gt;" style="endArrow=open;endSize=12;dashed=1;html=1;rounded=0;entryX=0.63;entryY=-0.021;entryDx=0;entryDy=0;exitX=0.5;exitY=1;exitDx=0;exitDy=0;entryPerimeter=0;" parent="1" source="QcYhOKtaJUYR_8YwgSNl-6" target="tsS1E2rS6Lll62WBFHYo-192" edge="1">
          <mxGeometry x="-0.006" width="160" relative="1" as="geometry">
            <mxPoint x="611.5" y="265" as="sourcePoint" />
            <mxPoint x="586.5" y="314" as="targetPoint" />
            <mxPoint as="offset" />
            <Array as="points" />
          </mxGeometry>
        </mxCell>
        <mxCell id="tsS1E2rS6Lll62WBFHYo-230" value="&amp;lt;&amp;lt;include&amp;gt;&amp;gt;" style="endArrow=open;endSize=12;dashed=1;html=1;rounded=0;entryX=0.612;entryY=0.926;entryDx=0;entryDy=0;exitX=1;exitY=0.5;exitDx=0;exitDy=0;entryPerimeter=0;" parent="1" source="QcYhOKtaJUYR_8YwgSNl-13" target="QcYhOKtaJUYR_8YwgSNl-60" edge="1">
          <mxGeometry x="-0.0959" width="160" relative="1" as="geometry">
            <mxPoint x="603" y="275" as="sourcePoint" />
            <mxPoint x="565" y="324" as="targetPoint" />
            <mxPoint x="1" as="offset" />
            <Array as="points" />
          </mxGeometry>
        </mxCell>
        <mxCell id="tsS1E2rS6Lll62WBFHYo-231" value="&amp;lt;&amp;lt;include&amp;gt;&amp;gt;" style="endArrow=open;endSize=12;dashed=1;html=1;rounded=0;entryX=1;entryY=0.5;entryDx=0;entryDy=0;" parent="1" source="tsS1E2rS6Lll62WBFHYo-144" target="QcYhOKtaJUYR_8YwgSNl-17" edge="1">
          <mxGeometry x="0.1377" width="160" relative="1" as="geometry">
            <mxPoint x="956" y="1446" as="sourcePoint" />
            <mxPoint x="835" y="1503" as="targetPoint" />
            <mxPoint as="offset" />
            <Array as="points">
              <mxPoint x="1078" y="1431" />
            </Array>
          </mxGeometry>
        </mxCell>
        <mxCell id="tsS1E2rS6Lll62WBFHYo-232" value="&amp;lt;&amp;lt;include&amp;gt;&amp;gt;" style="endArrow=open;endSize=12;dashed=1;html=1;rounded=0;entryX=0.562;entryY=0.036;entryDx=0;entryDy=0;exitX=0.5;exitY=1;exitDx=0;exitDy=0;entryPerimeter=0;" parent="1" source="QcYhOKtaJUYR_8YwgSNl-62" target="QcYhOKtaJUYR_8YwgSNl-67" edge="1">
          <mxGeometry x="-0.1334" width="160" relative="1" as="geometry">
            <mxPoint x="204" y="1563" as="sourcePoint" />
            <mxPoint x="83" y="1620" as="targetPoint" />
            <mxPoint as="offset" />
            <Array as="points" />
          </mxGeometry>
        </mxCell>
        <mxCell id="tsS1E2rS6Lll62WBFHYo-233" value="&amp;lt;&amp;lt;include&amp;gt;&amp;gt;" style="endArrow=open;endSize=12;dashed=1;html=1;rounded=0;entryX=0.054;entryY=0.294;entryDx=0;entryDy=0;exitX=0;exitY=0;exitDx=0;exitDy=0;entryPerimeter=0;" parent="1" source="QcYhOKtaJUYR_8YwgSNl-14" target="QcYhOKtaJUYR_8YwgSNl-62" edge="1">
          <mxGeometry x="-0.6018" y="-3" width="160" relative="1" as="geometry">
            <mxPoint x="202" y="1548" as="sourcePoint" />
            <mxPoint x="234" y="1589" as="targetPoint" />
            <mxPoint as="offset" />
            <Array as="points">
              <mxPoint x="-75" y="1187" />
              <mxPoint x="-75" y="1419" />
            </Array>
          </mxGeometry>
        </mxCell>
        <mxCell id="OQbixMn_HIjXtZYiP7bv-1" value="" style="endArrow=none;html=1;rounded=0;exitX=1;exitY=0.3333333333333333;exitDx=0;exitDy=0;exitPerimeter=0;entryX=0;entryY=0.5;entryDx=0;entryDy=0;" edge="1" parent="1" source="QcYhOKtaJUYR_8YwgSNl-22" target="tsS1E2rS6Lll62WBFHYo-197">
          <mxGeometry width="50" height="50" relative="1" as="geometry">
            <mxPoint x="-766" y="1078" as="sourcePoint" />
            <mxPoint x="-100" y="1601" as="targetPoint" />
            <Array as="points" />
          </mxGeometry>
        </mxCell>
        <mxCell id="OQbixMn_HIjXtZYiP7bv-2" value="&amp;lt;&amp;lt;include&amp;gt;&amp;gt;" style="endArrow=open;endSize=12;dashed=1;html=1;rounded=0;entryX=0.969;entryY=0.574;entryDx=0;entryDy=0;exitX=0.5;exitY=0;exitDx=0;exitDy=0;entryPerimeter=0;" edge="1" parent="1" source="tsS1E2rS6Lll62WBFHYo-144" target="QcYhOKtaJUYR_8YwgSNl-8">
          <mxGeometry x="0.4589" width="160" relative="1" as="geometry">
            <mxPoint x="1085" y="1269" as="sourcePoint" />
            <mxPoint x="240" y="1287" as="targetPoint" />
            <mxPoint as="offset" />
            <Array as="points">
              <mxPoint x="1078" y="1349" />
              <mxPoint x="1125" y="1349" />
              <mxPoint x="1173" y="1349" />
              <mxPoint x="1267" y="1349" />
              <mxPoint x="1267" y="1132" />
              <mxPoint x="1267" y="765" />
              <mxPoint x="1267" y="383" />
              <mxPoint x="1112" y="312" />
            </Array>
          </mxGeometry>
        </mxCell>
      </root>
    </mxGraphModel>
  </diagram>
</mxfile>
